<svg width="40" height="40" viewBox="0 0 40 40" fill="none" xmlns="http://www.w3.org/2000/svg">
  <rect width="40" height="40" rx="8" fill="url(#paint0_linear)"/>
  <path d="M20 10C14.48 10 10 14.48 10 20C10 25.52 14.48 30 20 30C25.52 30 30 25.52 30 20C30 14.48 25.52 10 20 10ZM20 28C15.59 28 12 24.41 12 20C12 15.59 15.59 12 20 12C24.41 12 28 15.59 28 20C28 24.41 24.41 28 20 28ZM23.59 16.41L18 22L16.41 20.41C16.02 20.02 15.39 20.02 15 20.41C14.61 20.8 14.61 21.43 15 21.82L17.29 24.11C17.68 24.5 18.31 24.5 18.7 24.11L25 17.82C25.39 17.43 25.39 16.8 25 16.41C24.61 16.02 23.98 16.02 23.59 16.41Z" fill="white"/>
  <defs>
    <linearGradient id="paint0_linear" x1="0" y1="0" x2="40" y2="40" gradientUnits="userSpaceOnUse">
      <stop stop-color="#9333EA"/>
      <stop offset="1" stop-color="#2563EB"/>
    </linearGradient>
  </defs>
</svg>
